<?xml version="1.0" standalone="no"?>
<!DOCTYPE svg PUBLIC "-//W3C//DTD SVG 20010904//EN"
 "http://www.w3.org/TR/2001/REC-SVG-20010904/DTD/svg10.dtd">
<svg version="1.0" xmlns="http://www.w3.org/2000/svg"
 width="447.000000pt" height="558.000000pt" viewBox="0 0 447.000000 558.000000"
 preserveAspectRatio="xMidYMid meet">

<g transform="translate(0.000000,558.000000) scale(0.100000,-0.100000)"
fill="#ffff" stroke="none">
<path d="M3839 5064 c-863 -1083 -1060 -1330 -1373 -1724 -186 -234 -350 -441
-366 -460 -15 -19 -30 -33 -32 -30 -37 38 -619 769 -1022 1280 -93 118 -172
216 -176 218 -5 2 -8 -701 -9 -1563 0 -861 3 -1565 7 -1565 4 0 25 23 47 51
21 28 142 180 267 337 l228 285 0 444 c0 248 4 443 9 443 5 0 84 -94 176 -210
93 -116 172 -210 176 -210 8 0 139 163 1028 1280 265 333 627 787 805 1010
177 223 367 461 421 530 54 69 118 149 142 179 23 29 43 56 43 60 0 4 -11 17
-23 30 l-24 22 -324 -407z"/>
<path d="M3640 4314 c-58 -77 -364 -463 -1230 -1548 -829 -1038 -1223 -1532
-1501 -1882 -113 -142 -285 -359 -382 -481 -97 -123 -177 -227 -177 -231 0
-16 39 -44 51 -37 10 7 409 505 1030 1286 469 590 532 669 539 669 4 0 74 -83
155 -185 81 -103 151 -185 155 -183 5 2 84 100 177 218 141 180 323 410 625
787 27 35 54 60 60 57 6 -4 9 -289 8 -788 -1 -429 -1 -789 -1 -798 1 -17 21
-18 266 -18 203 0 267 3 270 12 3 7 4 726 3 1598 l-3 1584 -45 -60z"/>
</g>
</svg>
